# xmcd CD database file
# Copyright (C) 1993-1996 Ti Kan
#
# Track frame offsets:
# 150
# 14647
# 24027
# 37152
# 47685
# 59980
# 70135
# 80000
# 90287
# 100767
# 112365
# 123342
# 132405
# 144097
# 156010
# 167165
# 178710
# 187030
# 197420
# 206662
# 218457
# 229500
# 239132
# 249200
# 260537
# 269762
# 280127
# 292062
# 304232
#
# Disc length: 4200 seconds
#
# Revision: 0
# Processed by: cddbd v1.5.2PL0 Copyright (c) Steve Scherf et al.
# Submitted via: inCDius 1.1b5
#
DISCID=b310661d
DTITLE=Porter Wagoner - The Thin Man From The West Plains  Disc 4 
DYEAR=1993
DGENRE=Country
TTITLE0=Legend Of The Big Steeple
TTITLE1=Wakin' Up The Crowd
TTITLE2=An Old Log Cabin For Sale
TTITLE3=Falling Again
TTITLE4=Old Jess
TTITLE5=Your Old Love Letters
TTITLE6=Heartbreak Affair
TTITLE7=Everything She Touches Gets The Blues
TTITLE8=I cried Again
TTITLE9=Tricks Of the Trade
TTITLE10=My Name Is Mud
TTITLE11=Sugarfoot Rag
TTITLE12=I Thought I Heard You Calling My Name
TTITLE13=One Way Ticket To The Blues
TTITLE14=Take Good Care Of Her
TTITLE15=I went Out Of My Way
TTITLE16=Tennessee Border
TTITLE17=I Gotta Find Someone (Who Loves Like I do)
TTITLE18=Uncle Pen
TTITLE19=Misery Loves Company
TTITLE20=Cryin' Loud
TTITLE21=I Wonder Where You Are Tonight
TTITLE22=Frosty The Snowman
TTITLE23=Cold Dark Waters
TTITLE24=Ainn't It Awful
TTITLE25=Wasted Years
TTITLE26=Private Little World
TTITLE27=I've Enjoyed As Much Of This As I CanStand
TTITLE28=Blue House Painted White
EXTD=
EXTT0=
EXTT1=
EXTT2=
EXTT3=
EXTT4=
EXTT5=
EXTT6=
EXTT7=
EXTT8=
EXTT9=
EXTT10=
EXTT11=
EXTT12=
EXTT13=
EXTT14=
EXTT15=
EXTT16=
EXTT17=
EXTT18=
EXTT19=
EXTT20=
EXTT21=
EXTT22=
EXTT23=
EXTT24=
EXTT25=
EXTT26=
EXTT27=
EXTT28=
PLAYORDER=
